<mxfile host="app.diagrams.net" modified="2024-06-24T09:20:20.923Z" agent="Mozilla/5.0 (Windows NT 10.0; Win64; x64) AppleWebKit/537.36 (KHTML, like Gecko) Chrome/126.0.0.0 Safari/537.36" version="24.6.2" etag="pYbLIwvnc-VTrDoy2VaP" type="github">
  <diagram name="第 1 页" id="ujBy0qrR0RC5hTIfm3Kv">
    <mxGraphModel>
      <root>
        <mxCell id="0" />
        <mxCell id="1" parent="0" />
      </root>
    </mxGraphModel>
  </diagram>
</mxfile>
